G04 #@! TF.GenerationSoftware,KiCad,Pcbnew,5.0.2+dfsg1-1+deb10u1*
G04 #@! TF.CreationDate,2023-11-23T01:58:30+01:00*
G04 #@! TF.ProjectId,Carte _lectronique pilotage variateur,43617274-6520-4e96-9c65-6374726f6e69,rev?*
G04 #@! TF.SameCoordinates,Original*
G04 #@! TF.FileFunction,Legend,Top*
G04 #@! TF.FilePolarity,Positive*
%FSLAX46Y46*%
G04 Gerber Fmt 4.6, Leading zero omitted, Abs format (unit mm)*
G04 Created by KiCad (PCBNEW 5.0.2+dfsg1-1+deb10u1) date jeu. 23 nov. 2023 01:58:30 CET*
%MOMM*%
%LPD*%
G01*
G04 APERTURE LIST*
%ADD10C,0.150000*%
%ADD11C,0.120000*%
G04 APERTURE END LIST*
D10*
X185466666Y-92516666D02*
X185700000Y-93216666D01*
X185933333Y-92516666D01*
X186433333Y-93183333D02*
X186366666Y-93216666D01*
X186233333Y-93216666D01*
X186166666Y-93183333D01*
X186133333Y-93116666D01*
X186133333Y-92850000D01*
X186166666Y-92783333D01*
X186233333Y-92750000D01*
X186366666Y-92750000D01*
X186433333Y-92783333D01*
X186466666Y-92850000D01*
X186466666Y-92916666D01*
X186133333Y-92983333D01*
X186766666Y-93216666D02*
X186766666Y-92750000D01*
X186766666Y-92883333D02*
X186800000Y-92816666D01*
X186833333Y-92783333D01*
X186900000Y-92750000D01*
X186966666Y-92750000D01*
X187166666Y-93183333D02*
X187233333Y-93216666D01*
X187366666Y-93216666D01*
X187433333Y-93183333D01*
X187466666Y-93116666D01*
X187466666Y-93083333D01*
X187433333Y-93016666D01*
X187366666Y-92983333D01*
X187266666Y-92983333D01*
X187200000Y-92950000D01*
X187166666Y-92883333D01*
X187166666Y-92850000D01*
X187200000Y-92783333D01*
X187266666Y-92750000D01*
X187366666Y-92750000D01*
X187433333Y-92783333D01*
X183983333Y-94416666D02*
X183983333Y-93950000D01*
X183983333Y-94083333D02*
X184016666Y-94016666D01*
X184050000Y-93983333D01*
X184116666Y-93950000D01*
X184183333Y-93950000D01*
X184683333Y-94383333D02*
X184616666Y-94416666D01*
X184483333Y-94416666D01*
X184416666Y-94383333D01*
X184383333Y-94316666D01*
X184383333Y-94050000D01*
X184416666Y-93983333D01*
X184483333Y-93950000D01*
X184616666Y-93950000D01*
X184683333Y-93983333D01*
X184716666Y-94050000D01*
X184716666Y-94116666D01*
X184383333Y-94183333D01*
X184616666Y-93683333D02*
X184516666Y-93783333D01*
X185316666Y-93950000D02*
X185316666Y-94516666D01*
X185283333Y-94583333D01*
X185250000Y-94616666D01*
X185183333Y-94650000D01*
X185083333Y-94650000D01*
X185016666Y-94616666D01*
X185316666Y-94383333D02*
X185250000Y-94416666D01*
X185116666Y-94416666D01*
X185050000Y-94383333D01*
X185016666Y-94350000D01*
X184983333Y-94283333D01*
X184983333Y-94083333D01*
X185016666Y-94016666D01*
X185050000Y-93983333D01*
X185116666Y-93950000D01*
X185250000Y-93950000D01*
X185316666Y-93983333D01*
X185950000Y-93950000D02*
X185950000Y-94416666D01*
X185650000Y-93950000D02*
X185650000Y-94316666D01*
X185683333Y-94383333D01*
X185750000Y-94416666D01*
X185850000Y-94416666D01*
X185916666Y-94383333D01*
X185950000Y-94350000D01*
X186383333Y-94416666D02*
X186316666Y-94383333D01*
X186283333Y-94316666D01*
X186283333Y-93716666D01*
X186950000Y-94416666D02*
X186950000Y-94050000D01*
X186916666Y-93983333D01*
X186850000Y-93950000D01*
X186716666Y-93950000D01*
X186650000Y-93983333D01*
X186950000Y-94383333D02*
X186883333Y-94416666D01*
X186716666Y-94416666D01*
X186650000Y-94383333D01*
X186616666Y-94316666D01*
X186616666Y-94250000D01*
X186650000Y-94183333D01*
X186716666Y-94150000D01*
X186883333Y-94150000D01*
X186950000Y-94116666D01*
X187183333Y-93950000D02*
X187450000Y-93950000D01*
X187283333Y-93716666D02*
X187283333Y-94316666D01*
X187316666Y-94383333D01*
X187383333Y-94416666D01*
X187450000Y-94416666D01*
X187950000Y-94383333D02*
X187883333Y-94416666D01*
X187750000Y-94416666D01*
X187683333Y-94383333D01*
X187650000Y-94316666D01*
X187650000Y-94050000D01*
X187683333Y-93983333D01*
X187750000Y-93950000D01*
X187883333Y-93950000D01*
X187950000Y-93983333D01*
X187983333Y-94050000D01*
X187983333Y-94116666D01*
X187650000Y-94183333D01*
X188583333Y-93950000D02*
X188583333Y-94416666D01*
X188283333Y-93950000D02*
X188283333Y-94316666D01*
X188316666Y-94383333D01*
X188383333Y-94416666D01*
X188483333Y-94416666D01*
X188550000Y-94383333D01*
X188583333Y-94350000D01*
X188916666Y-94416666D02*
X188916666Y-93950000D01*
X188916666Y-94083333D02*
X188950000Y-94016666D01*
X188983333Y-93983333D01*
X189050000Y-93950000D01*
X189116666Y-93950000D01*
X157966666Y-92516666D02*
X158200000Y-93216666D01*
X158433333Y-92516666D01*
X158933333Y-93183333D02*
X158866666Y-93216666D01*
X158733333Y-93216666D01*
X158666666Y-93183333D01*
X158633333Y-93116666D01*
X158633333Y-92850000D01*
X158666666Y-92783333D01*
X158733333Y-92750000D01*
X158866666Y-92750000D01*
X158933333Y-92783333D01*
X158966666Y-92850000D01*
X158966666Y-92916666D01*
X158633333Y-92983333D01*
X159266666Y-93216666D02*
X159266666Y-92750000D01*
X159266666Y-92883333D02*
X159300000Y-92816666D01*
X159333333Y-92783333D01*
X159400000Y-92750000D01*
X159466666Y-92750000D01*
X159666666Y-93183333D02*
X159733333Y-93216666D01*
X159866666Y-93216666D01*
X159933333Y-93183333D01*
X159966666Y-93116666D01*
X159966666Y-93083333D01*
X159933333Y-93016666D01*
X159866666Y-92983333D01*
X159766666Y-92983333D01*
X159700000Y-92950000D01*
X159666666Y-92883333D01*
X159666666Y-92850000D01*
X159700000Y-92783333D01*
X159766666Y-92750000D01*
X159866666Y-92750000D01*
X159933333Y-92783333D01*
X154150000Y-94150000D02*
X154683333Y-94150000D01*
X154416666Y-94416666D02*
X154416666Y-93883333D01*
X155016666Y-94416666D02*
X155016666Y-93950000D01*
X155016666Y-94016666D02*
X155050000Y-93983333D01*
X155116666Y-93950000D01*
X155216666Y-93950000D01*
X155283333Y-93983333D01*
X155316666Y-94050000D01*
X155316666Y-94416666D01*
X155316666Y-94050000D02*
X155350000Y-93983333D01*
X155416666Y-93950000D01*
X155516666Y-93950000D01*
X155583333Y-93983333D01*
X155616666Y-94050000D01*
X155616666Y-94416666D01*
X155950000Y-94416666D02*
X155950000Y-93950000D01*
X155950000Y-93716666D02*
X155916666Y-93750000D01*
X155950000Y-93783333D01*
X155983333Y-93750000D01*
X155950000Y-93716666D01*
X155950000Y-93783333D01*
X156583333Y-94383333D02*
X156516666Y-94416666D01*
X156383333Y-94416666D01*
X156316666Y-94383333D01*
X156283333Y-94350000D01*
X156250000Y-94283333D01*
X156250000Y-94083333D01*
X156283333Y-94016666D01*
X156316666Y-93983333D01*
X156383333Y-93950000D01*
X156516666Y-93950000D01*
X156583333Y-93983333D01*
X156883333Y-94416666D02*
X156883333Y-93950000D01*
X156883333Y-94083333D02*
X156916666Y-94016666D01*
X156950000Y-93983333D01*
X157016666Y-93950000D01*
X157083333Y-93950000D01*
X157416666Y-94416666D02*
X157350000Y-94383333D01*
X157316666Y-94350000D01*
X157283333Y-94283333D01*
X157283333Y-94083333D01*
X157316666Y-94016666D01*
X157350000Y-93983333D01*
X157416666Y-93950000D01*
X157516666Y-93950000D01*
X157583333Y-93983333D01*
X157616666Y-94016666D01*
X157650000Y-94083333D01*
X157650000Y-94283333D01*
X157616666Y-94350000D01*
X157583333Y-94383333D01*
X157516666Y-94416666D01*
X157416666Y-94416666D01*
X158250000Y-94383333D02*
X158183333Y-94416666D01*
X158050000Y-94416666D01*
X157983333Y-94383333D01*
X157950000Y-94350000D01*
X157916666Y-94283333D01*
X157916666Y-94083333D01*
X157950000Y-94016666D01*
X157983333Y-93983333D01*
X158050000Y-93950000D01*
X158183333Y-93950000D01*
X158250000Y-93983333D01*
X158650000Y-94416666D02*
X158583333Y-94383333D01*
X158550000Y-94350000D01*
X158516666Y-94283333D01*
X158516666Y-94083333D01*
X158550000Y-94016666D01*
X158583333Y-93983333D01*
X158650000Y-93950000D01*
X158750000Y-93950000D01*
X158816666Y-93983333D01*
X158850000Y-94016666D01*
X158883333Y-94083333D01*
X158883333Y-94283333D01*
X158850000Y-94350000D01*
X158816666Y-94383333D01*
X158750000Y-94416666D01*
X158650000Y-94416666D01*
X159183333Y-93950000D02*
X159183333Y-94416666D01*
X159183333Y-94016666D02*
X159216666Y-93983333D01*
X159283333Y-93950000D01*
X159383333Y-93950000D01*
X159450000Y-93983333D01*
X159483333Y-94050000D01*
X159483333Y-94416666D01*
X159716666Y-93950000D02*
X159983333Y-93950000D01*
X159816666Y-93716666D02*
X159816666Y-94316666D01*
X159850000Y-94383333D01*
X159916666Y-94416666D01*
X159983333Y-94416666D01*
X160216666Y-94416666D02*
X160216666Y-93950000D01*
X160216666Y-94083333D02*
X160250000Y-94016666D01*
X160283333Y-93983333D01*
X160350000Y-93950000D01*
X160416666Y-93950000D01*
X160750000Y-94416666D02*
X160683333Y-94383333D01*
X160650000Y-94350000D01*
X160616666Y-94283333D01*
X160616666Y-94083333D01*
X160650000Y-94016666D01*
X160683333Y-93983333D01*
X160750000Y-93950000D01*
X160850000Y-93950000D01*
X160916666Y-93983333D01*
X160950000Y-94016666D01*
X160983333Y-94083333D01*
X160983333Y-94283333D01*
X160950000Y-94350000D01*
X160916666Y-94383333D01*
X160850000Y-94416666D01*
X160750000Y-94416666D01*
X160683333Y-93783333D02*
X160816666Y-93683333D01*
X160950000Y-93783333D01*
X161383333Y-94416666D02*
X161316666Y-94383333D01*
X161283333Y-94316666D01*
X161283333Y-93716666D01*
X161916666Y-94383333D02*
X161850000Y-94416666D01*
X161716666Y-94416666D01*
X161650000Y-94383333D01*
X161616666Y-94316666D01*
X161616666Y-94050000D01*
X161650000Y-93983333D01*
X161716666Y-93950000D01*
X161850000Y-93950000D01*
X161916666Y-93983333D01*
X161950000Y-94050000D01*
X161950000Y-94116666D01*
X161616666Y-94183333D01*
X162550000Y-93950000D02*
X162550000Y-94416666D01*
X162250000Y-93950000D02*
X162250000Y-94316666D01*
X162283333Y-94383333D01*
X162350000Y-94416666D01*
X162450000Y-94416666D01*
X162516666Y-94383333D01*
X162550000Y-94350000D01*
X162883333Y-94416666D02*
X162883333Y-93950000D01*
X162883333Y-94083333D02*
X162916666Y-94016666D01*
X162950000Y-93983333D01*
X163016666Y-93950000D01*
X163083333Y-93950000D01*
X163316666Y-94150000D02*
X163850000Y-94150000D01*
X162166666Y-84627380D02*
X162166666Y-83627380D01*
X162642857Y-83960714D02*
X162642857Y-84627380D01*
X162642857Y-84055952D02*
X162690476Y-84008333D01*
X162785714Y-83960714D01*
X162928571Y-83960714D01*
X163023809Y-84008333D01*
X163071428Y-84103571D01*
X163071428Y-84627380D01*
X163404761Y-83960714D02*
X163785714Y-83960714D01*
X163547619Y-83627380D02*
X163547619Y-84484523D01*
X163595238Y-84579761D01*
X163690476Y-84627380D01*
X163785714Y-84627380D01*
X164500000Y-84579761D02*
X164404761Y-84627380D01*
X164214285Y-84627380D01*
X164119047Y-84579761D01*
X164071428Y-84484523D01*
X164071428Y-84103571D01*
X164119047Y-84008333D01*
X164214285Y-83960714D01*
X164404761Y-83960714D01*
X164500000Y-84008333D01*
X164547619Y-84103571D01*
X164547619Y-84198809D01*
X164071428Y-84294047D01*
X164976190Y-84627380D02*
X164976190Y-83960714D01*
X164976190Y-84151190D02*
X165023809Y-84055952D01*
X165071428Y-84008333D01*
X165166666Y-83960714D01*
X165261904Y-83960714D01*
X165452380Y-83960714D02*
X165833333Y-83960714D01*
X165595238Y-84627380D02*
X165595238Y-83770238D01*
X165642857Y-83675000D01*
X165738095Y-83627380D01*
X165833333Y-83627380D01*
X166595238Y-84627380D02*
X166595238Y-84103571D01*
X166547619Y-84008333D01*
X166452380Y-83960714D01*
X166261904Y-83960714D01*
X166166666Y-84008333D01*
X166595238Y-84579761D02*
X166500000Y-84627380D01*
X166261904Y-84627380D01*
X166166666Y-84579761D01*
X166119047Y-84484523D01*
X166119047Y-84389285D01*
X166166666Y-84294047D01*
X166261904Y-84246428D01*
X166500000Y-84246428D01*
X166595238Y-84198809D01*
X167500000Y-84579761D02*
X167404761Y-84627380D01*
X167214285Y-84627380D01*
X167119047Y-84579761D01*
X167071428Y-84532142D01*
X167023809Y-84436904D01*
X167023809Y-84151190D01*
X167071428Y-84055952D01*
X167119047Y-84008333D01*
X167214285Y-83960714D01*
X167404761Y-83960714D01*
X167500000Y-84008333D01*
X168309523Y-84579761D02*
X168214285Y-84627380D01*
X168023809Y-84627380D01*
X167928571Y-84579761D01*
X167880952Y-84484523D01*
X167880952Y-84103571D01*
X167928571Y-84008333D01*
X168023809Y-83960714D01*
X168214285Y-83960714D01*
X168309523Y-84008333D01*
X168357142Y-84103571D01*
X168357142Y-84198809D01*
X167880952Y-84294047D01*
X170119047Y-84627380D02*
X169785714Y-84151190D01*
X169547619Y-84627380D02*
X169547619Y-83627380D01*
X169928571Y-83627380D01*
X170023809Y-83675000D01*
X170071428Y-83722619D01*
X170119047Y-83817857D01*
X170119047Y-83960714D01*
X170071428Y-84055952D01*
X170023809Y-84103571D01*
X169928571Y-84151190D01*
X169547619Y-84151190D01*
X170690476Y-84627380D02*
X170595238Y-84579761D01*
X170547619Y-84532142D01*
X170500000Y-84436904D01*
X170500000Y-84151190D01*
X170547619Y-84055952D01*
X170595238Y-84008333D01*
X170690476Y-83960714D01*
X170833333Y-83960714D01*
X170928571Y-84008333D01*
X170976190Y-84055952D01*
X171023809Y-84151190D01*
X171023809Y-84436904D01*
X170976190Y-84532142D01*
X170928571Y-84579761D01*
X170833333Y-84627380D01*
X170690476Y-84627380D01*
X171880952Y-83960714D02*
X171880952Y-84627380D01*
X171452380Y-83960714D02*
X171452380Y-84484523D01*
X171500000Y-84579761D01*
X171595238Y-84627380D01*
X171738095Y-84627380D01*
X171833333Y-84579761D01*
X171880952Y-84532142D01*
X172214285Y-83960714D02*
X172595238Y-83960714D01*
X172357142Y-83627380D02*
X172357142Y-84484523D01*
X172404761Y-84579761D01*
X172500000Y-84627380D01*
X172595238Y-84627380D01*
X173309523Y-84579761D02*
X173214285Y-84627380D01*
X173023809Y-84627380D01*
X172928571Y-84579761D01*
X172880952Y-84484523D01*
X172880952Y-84103571D01*
X172928571Y-84008333D01*
X173023809Y-83960714D01*
X173214285Y-83960714D01*
X173309523Y-84008333D01*
X173357142Y-84103571D01*
X173357142Y-84198809D01*
X172880952Y-84294047D01*
X174214285Y-83960714D02*
X174214285Y-84627380D01*
X173785714Y-83960714D02*
X173785714Y-84484523D01*
X173833333Y-84579761D01*
X173928571Y-84627380D01*
X174071428Y-84627380D01*
X174166666Y-84579761D01*
X174214285Y-84532142D01*
X174690476Y-84627380D02*
X174690476Y-83960714D01*
X174690476Y-84151190D02*
X174738095Y-84055952D01*
X174785714Y-84008333D01*
X174880952Y-83960714D01*
X174976190Y-83960714D01*
X176023809Y-84579761D02*
X176166666Y-84627380D01*
X176404761Y-84627380D01*
X176500000Y-84579761D01*
X176547619Y-84532142D01*
X176595238Y-84436904D01*
X176595238Y-84341666D01*
X176547619Y-84246428D01*
X176500000Y-84198809D01*
X176404761Y-84151190D01*
X176214285Y-84103571D01*
X176119047Y-84055952D01*
X176071428Y-84008333D01*
X176023809Y-83913095D01*
X176023809Y-83817857D01*
X176071428Y-83722619D01*
X176119047Y-83675000D01*
X176214285Y-83627380D01*
X176452380Y-83627380D01*
X176595238Y-83675000D01*
X177166666Y-84627380D02*
X177071428Y-84579761D01*
X177023809Y-84532142D01*
X176976190Y-84436904D01*
X176976190Y-84151190D01*
X177023809Y-84055952D01*
X177071428Y-84008333D01*
X177166666Y-83960714D01*
X177309523Y-83960714D01*
X177404761Y-84008333D01*
X177452380Y-84055952D01*
X177500000Y-84151190D01*
X177500000Y-84436904D01*
X177452380Y-84532142D01*
X177404761Y-84579761D01*
X177309523Y-84627380D01*
X177166666Y-84627380D01*
X178071428Y-84627380D02*
X177976190Y-84579761D01*
X177928571Y-84484523D01*
X177928571Y-83627380D01*
X178880952Y-84627380D02*
X178880952Y-84103571D01*
X178833333Y-84008333D01*
X178738095Y-83960714D01*
X178547619Y-83960714D01*
X178452380Y-84008333D01*
X178880952Y-84579761D02*
X178785714Y-84627380D01*
X178547619Y-84627380D01*
X178452380Y-84579761D01*
X178404761Y-84484523D01*
X178404761Y-84389285D01*
X178452380Y-84294047D01*
X178547619Y-84246428D01*
X178785714Y-84246428D01*
X178880952Y-84198809D01*
X179357142Y-84627380D02*
X179357142Y-83960714D01*
X179357142Y-83627380D02*
X179309523Y-83675000D01*
X179357142Y-83722619D01*
X179404761Y-83675000D01*
X179357142Y-83627380D01*
X179357142Y-83722619D01*
X179833333Y-84627380D02*
X179833333Y-83960714D01*
X179833333Y-84151190D02*
X179880952Y-84055952D01*
X179928571Y-84008333D01*
X180023809Y-83960714D01*
X180119047Y-83960714D01*
X180833333Y-84579761D02*
X180738095Y-84627380D01*
X180547619Y-84627380D01*
X180452380Y-84579761D01*
X180404761Y-84484523D01*
X180404761Y-84103571D01*
X180452380Y-84008333D01*
X180547619Y-83960714D01*
X180738095Y-83960714D01*
X180833333Y-84008333D01*
X180880952Y-84103571D01*
X180880952Y-84198809D01*
X180404761Y-84294047D01*
X161476190Y-85277380D02*
X161476190Y-85991666D01*
X161428571Y-86134523D01*
X161333333Y-86229761D01*
X161190476Y-86277380D01*
X161095238Y-86277380D01*
X162380952Y-85610714D02*
X162380952Y-86277380D01*
X161952380Y-85610714D02*
X161952380Y-86134523D01*
X162000000Y-86229761D01*
X162095238Y-86277380D01*
X162238095Y-86277380D01*
X162333333Y-86229761D01*
X162380952Y-86182142D01*
X163000000Y-86277380D02*
X162904761Y-86229761D01*
X162857142Y-86134523D01*
X162857142Y-85277380D01*
X163380952Y-86277380D02*
X163380952Y-85610714D01*
X163380952Y-85277380D02*
X163333333Y-85325000D01*
X163380952Y-85372619D01*
X163428571Y-85325000D01*
X163380952Y-85277380D01*
X163380952Y-85372619D01*
X164238095Y-86229761D02*
X164142857Y-86277380D01*
X163952380Y-86277380D01*
X163857142Y-86229761D01*
X163809523Y-86134523D01*
X163809523Y-85753571D01*
X163857142Y-85658333D01*
X163952380Y-85610714D01*
X164142857Y-85610714D01*
X164238095Y-85658333D01*
X164285714Y-85753571D01*
X164285714Y-85848809D01*
X163809523Y-85944047D01*
X164714285Y-85610714D02*
X164714285Y-86277380D01*
X164714285Y-85705952D02*
X164761904Y-85658333D01*
X164857142Y-85610714D01*
X165000000Y-85610714D01*
X165095238Y-85658333D01*
X165142857Y-85753571D01*
X165142857Y-86277380D01*
X166333333Y-85991666D02*
X166809523Y-85991666D01*
X166238095Y-86277380D02*
X166571428Y-85277380D01*
X166904761Y-86277380D01*
X167238095Y-86277380D02*
X167238095Y-85277380D01*
X167571428Y-85991666D01*
X167904761Y-85277380D01*
X167904761Y-86277380D01*
X168952380Y-86277380D02*
X168619047Y-85801190D01*
X168380952Y-86277380D02*
X168380952Y-85277380D01*
X168761904Y-85277380D01*
X168857142Y-85325000D01*
X168904761Y-85372619D01*
X168952380Y-85467857D01*
X168952380Y-85610714D01*
X168904761Y-85705952D01*
X168857142Y-85753571D01*
X168761904Y-85801190D01*
X168380952Y-85801190D01*
X169380952Y-85753571D02*
X169714285Y-85753571D01*
X169857142Y-86277380D02*
X169380952Y-86277380D01*
X169380952Y-85277380D01*
X169857142Y-85277380D01*
X170285714Y-86277380D02*
X170285714Y-85277380D01*
X170761904Y-86277380D02*
X170761904Y-85277380D01*
X171333333Y-86277380D01*
X171333333Y-85277380D01*
X172571428Y-85896428D02*
X173333333Y-85896428D01*
X174523809Y-85372619D02*
X174571428Y-85325000D01*
X174666666Y-85277380D01*
X174904761Y-85277380D01*
X175000000Y-85325000D01*
X175047619Y-85372619D01*
X175095238Y-85467857D01*
X175095238Y-85563095D01*
X175047619Y-85705952D01*
X174476190Y-86277380D01*
X175095238Y-86277380D01*
X175714285Y-85277380D02*
X175809523Y-85277380D01*
X175904761Y-85325000D01*
X175952380Y-85372619D01*
X176000000Y-85467857D01*
X176047619Y-85658333D01*
X176047619Y-85896428D01*
X176000000Y-86086904D01*
X175952380Y-86182142D01*
X175904761Y-86229761D01*
X175809523Y-86277380D01*
X175714285Y-86277380D01*
X175619047Y-86229761D01*
X175571428Y-86182142D01*
X175523809Y-86086904D01*
X175476190Y-85896428D01*
X175476190Y-85658333D01*
X175523809Y-85467857D01*
X175571428Y-85372619D01*
X175619047Y-85325000D01*
X175714285Y-85277380D01*
X176428571Y-85372619D02*
X176476190Y-85325000D01*
X176571428Y-85277380D01*
X176809523Y-85277380D01*
X176904761Y-85325000D01*
X176952380Y-85372619D01*
X177000000Y-85467857D01*
X177000000Y-85563095D01*
X176952380Y-85705952D01*
X176380952Y-86277380D01*
X177000000Y-86277380D01*
X177333333Y-85277380D02*
X177952380Y-85277380D01*
X177619047Y-85658333D01*
X177761904Y-85658333D01*
X177857142Y-85705952D01*
X177904761Y-85753571D01*
X177952380Y-85848809D01*
X177952380Y-86086904D01*
X177904761Y-86182142D01*
X177857142Y-86229761D01*
X177761904Y-86277380D01*
X177476190Y-86277380D01*
X177380952Y-86229761D01*
X177333333Y-86182142D01*
X179047619Y-85610714D02*
X179285714Y-86277380D01*
X179523809Y-85610714D01*
X180428571Y-86277380D02*
X179857142Y-86277380D01*
X180142857Y-86277380D02*
X180142857Y-85277380D01*
X180047619Y-85420238D01*
X179952380Y-85515476D01*
X179857142Y-85563095D01*
X180857142Y-86182142D02*
X180904761Y-86229761D01*
X180857142Y-86277380D01*
X180809523Y-86229761D01*
X180857142Y-86182142D01*
X180857142Y-86277380D01*
X181523809Y-85277380D02*
X181619047Y-85277380D01*
X181714285Y-85325000D01*
X181761904Y-85372619D01*
X181809523Y-85467857D01*
X181857142Y-85658333D01*
X181857142Y-85896428D01*
X181809523Y-86086904D01*
X181761904Y-86182142D01*
X181714285Y-86229761D01*
X181619047Y-86277380D01*
X181523809Y-86277380D01*
X181428571Y-86229761D01*
X181380952Y-86182142D01*
X181333333Y-86086904D01*
X181285714Y-85896428D01*
X181285714Y-85658333D01*
X181333333Y-85467857D01*
X181380952Y-85372619D01*
X181428571Y-85325000D01*
X181523809Y-85277380D01*
D11*
G04 #@! TO.C,Rx*
X181500462Y-87240000D02*
G75*
G03X179955170Y-92790000I-462J-2990000D01*
G01*
X181499538Y-87240000D02*
G75*
G02X183044830Y-92790000I462J-2990000D01*
G01*
X184000000Y-90230000D02*
G75*
G03X184000000Y-90230000I-2500000J0D01*
G01*
X179955000Y-92790000D02*
X183045000Y-92790000D01*
G04 #@! TO.C,*
X160960000Y-102810000D02*
X171120000Y-102810000D01*
X160960000Y-95190000D02*
X160960000Y-102810000D01*
X171120000Y-95190000D02*
X160960000Y-95190000D01*
X171120000Y-102810000D02*
X171120000Y-95190000D01*
X171120000Y-101540000D02*
X160960000Y-101540000D01*
X182120000Y-101540000D02*
X171960000Y-101540000D01*
X182120000Y-102810000D02*
X182120000Y-95190000D01*
X182120000Y-95190000D02*
X171960000Y-95190000D01*
X171960000Y-95190000D02*
X171960000Y-102810000D01*
X171960000Y-102810000D02*
X182120000Y-102810000D01*
G04 #@! TO.C,33k*
X168310000Y-92130000D02*
X168310000Y-94870000D01*
X168310000Y-94870000D02*
X174850000Y-94870000D01*
X174850000Y-94870000D02*
X174850000Y-92130000D01*
X174850000Y-92130000D02*
X168310000Y-92130000D01*
X167540000Y-93500000D02*
X168310000Y-93500000D01*
X175620000Y-93500000D02*
X174850000Y-93500000D01*
G04 #@! TO.C,Tx*
X160455000Y-92790000D02*
X163545000Y-92790000D01*
X164500000Y-90230000D02*
G75*
G03X164500000Y-90230000I-2500000J0D01*
G01*
X161999538Y-87240000D02*
G75*
G02X163544830Y-92790000I462J-2990000D01*
G01*
X162000462Y-87240000D02*
G75*
G03X160455170Y-92790000I-462J-2990000D01*
G01*
G04 #@! TO.C,*
D10*
G04 #@! TO.C,Rx*
X177952380Y-90325238D02*
X177476190Y-90658571D01*
X177952380Y-90896666D02*
X176952380Y-90896666D01*
X176952380Y-90515714D01*
X177000000Y-90420476D01*
X177047619Y-90372857D01*
X177142857Y-90325238D01*
X177285714Y-90325238D01*
X177380952Y-90372857D01*
X177428571Y-90420476D01*
X177476190Y-90515714D01*
X177476190Y-90896666D01*
X177952380Y-89991904D02*
X177285714Y-89468095D01*
X177285714Y-89991904D02*
X177952380Y-89468095D01*
G04 #@! TO.C,*
G04 #@! TO.C,33k*
X170365714Y-92952380D02*
X170984761Y-92952380D01*
X170651428Y-93333333D01*
X170794285Y-93333333D01*
X170889523Y-93380952D01*
X170937142Y-93428571D01*
X170984761Y-93523809D01*
X170984761Y-93761904D01*
X170937142Y-93857142D01*
X170889523Y-93904761D01*
X170794285Y-93952380D01*
X170508571Y-93952380D01*
X170413333Y-93904761D01*
X170365714Y-93857142D01*
X171318095Y-92952380D02*
X171937142Y-92952380D01*
X171603809Y-93333333D01*
X171746666Y-93333333D01*
X171841904Y-93380952D01*
X171889523Y-93428571D01*
X171937142Y-93523809D01*
X171937142Y-93761904D01*
X171889523Y-93857142D01*
X171841904Y-93904761D01*
X171746666Y-93952380D01*
X171460952Y-93952380D01*
X171365714Y-93904761D01*
X171318095Y-93857142D01*
X172365714Y-93952380D02*
X172365714Y-92952380D01*
X172460952Y-93571428D02*
X172746666Y-93952380D01*
X172746666Y-93285714D02*
X172365714Y-93666666D01*
G04 #@! TO.C,*
X134124606Y-302219414D02*
X133791272Y-301743224D01*
X133553177Y-302219414D02*
X133553177Y-301219414D01*
X133934129Y-301219414D01*
X134029367Y-301267034D01*
X134076987Y-301314653D01*
X134124606Y-301409891D01*
X134124606Y-301552748D01*
X134076987Y-301647986D01*
X134029367Y-301695605D01*
X133934129Y-301743224D01*
X133553177Y-301743224D01*
X135267463Y-301171795D02*
X134410320Y-302457510D01*
X135457939Y-301219414D02*
X136029367Y-301219414D01*
X135743653Y-302219414D02*
X135743653Y-301219414D01*
X136362701Y-302219414D02*
X136362701Y-301552748D01*
X136362701Y-301743224D02*
X136410320Y-301647986D01*
X136457939Y-301600367D01*
X136553177Y-301552748D01*
X136648415Y-301552748D01*
X137410320Y-302219414D02*
X137410320Y-301695605D01*
X137362701Y-301600367D01*
X137267463Y-301552748D01*
X137076987Y-301552748D01*
X136981748Y-301600367D01*
X137410320Y-302171795D02*
X137315082Y-302219414D01*
X137076987Y-302219414D01*
X136981748Y-302171795D01*
X136934129Y-302076557D01*
X136934129Y-301981319D01*
X136981748Y-301886081D01*
X137076987Y-301838462D01*
X137315082Y-301838462D01*
X137410320Y-301790843D01*
X137886510Y-301552748D02*
X137886510Y-302219414D01*
X137886510Y-301647986D02*
X137934129Y-301600367D01*
X138029367Y-301552748D01*
X138172225Y-301552748D01*
X138267463Y-301600367D01*
X138315082Y-301695605D01*
X138315082Y-302219414D01*
X138743653Y-302171795D02*
X138838891Y-302219414D01*
X139029367Y-302219414D01*
X139124606Y-302171795D01*
X139172225Y-302076557D01*
X139172225Y-302028938D01*
X139124606Y-301933700D01*
X139029367Y-301886081D01*
X138886510Y-301886081D01*
X138791272Y-301838462D01*
X138743653Y-301743224D01*
X138743653Y-301695605D01*
X138791272Y-301600367D01*
X138886510Y-301552748D01*
X139029367Y-301552748D01*
X139124606Y-301600367D01*
X139457939Y-301552748D02*
X139838891Y-301552748D01*
X139600796Y-302219414D02*
X139600796Y-301362272D01*
X139648415Y-301267034D01*
X139743653Y-301219414D01*
X139838891Y-301219414D01*
X140315082Y-302219414D02*
X140219844Y-302171795D01*
X140172225Y-302124176D01*
X140124606Y-302028938D01*
X140124606Y-301743224D01*
X140172225Y-301647986D01*
X140219844Y-301600367D01*
X140315082Y-301552748D01*
X140457939Y-301552748D01*
X140553177Y-301600367D01*
X140600796Y-301647986D01*
X140648415Y-301743224D01*
X140648415Y-302028938D01*
X140600796Y-302124176D01*
X140553177Y-302171795D01*
X140457939Y-302219414D01*
X140315082Y-302219414D01*
X107624606Y-302719414D02*
X107291272Y-302243224D01*
X107053177Y-302719414D02*
X107053177Y-301719414D01*
X107434129Y-301719414D01*
X107529367Y-301767034D01*
X107576987Y-301814653D01*
X107624606Y-301909891D01*
X107624606Y-302052748D01*
X107576987Y-302147986D01*
X107529367Y-302195605D01*
X107434129Y-302243224D01*
X107053177Y-302243224D01*
X108767463Y-301671795D02*
X107910320Y-302957510D01*
X108957939Y-301719414D02*
X109529367Y-301719414D01*
X109243653Y-302719414D02*
X109243653Y-301719414D01*
X109862701Y-302719414D02*
X109862701Y-302052748D01*
X109862701Y-302243224D02*
X109910320Y-302147986D01*
X109957939Y-302100367D01*
X110053177Y-302052748D01*
X110148415Y-302052748D01*
X110910320Y-302719414D02*
X110910320Y-302195605D01*
X110862701Y-302100367D01*
X110767463Y-302052748D01*
X110576987Y-302052748D01*
X110481748Y-302100367D01*
X110910320Y-302671795D02*
X110815082Y-302719414D01*
X110576987Y-302719414D01*
X110481748Y-302671795D01*
X110434129Y-302576557D01*
X110434129Y-302481319D01*
X110481748Y-302386081D01*
X110576987Y-302338462D01*
X110815082Y-302338462D01*
X110910320Y-302290843D01*
X111386510Y-302052748D02*
X111386510Y-302719414D01*
X111386510Y-302147986D02*
X111434129Y-302100367D01*
X111529367Y-302052748D01*
X111672225Y-302052748D01*
X111767463Y-302100367D01*
X111815082Y-302195605D01*
X111815082Y-302719414D01*
X112243653Y-302671795D02*
X112338891Y-302719414D01*
X112529367Y-302719414D01*
X112624606Y-302671795D01*
X112672225Y-302576557D01*
X112672225Y-302528938D01*
X112624606Y-302433700D01*
X112529367Y-302386081D01*
X112386510Y-302386081D01*
X112291272Y-302338462D01*
X112243653Y-302243224D01*
X112243653Y-302195605D01*
X112291272Y-302100367D01*
X112386510Y-302052748D01*
X112529367Y-302052748D01*
X112624606Y-302100367D01*
X112957939Y-302052748D02*
X113338891Y-302052748D01*
X113100796Y-302719414D02*
X113100796Y-301862272D01*
X113148415Y-301767034D01*
X113243653Y-301719414D01*
X113338891Y-301719414D01*
X113815082Y-302719414D02*
X113719844Y-302671795D01*
X113672225Y-302624176D01*
X113624606Y-302528938D01*
X113624606Y-302243224D01*
X113672225Y-302147986D01*
X113719844Y-302100367D01*
X113815082Y-302052748D01*
X113957939Y-302052748D01*
X114053177Y-302100367D01*
X114100796Y-302147986D01*
X114148415Y-302243224D01*
X114148415Y-302528938D01*
X114100796Y-302624176D01*
X114053177Y-302671795D01*
X113957939Y-302719414D01*
X113815082Y-302719414D01*
X142124606Y-268219414D02*
X141791272Y-267743224D01*
X141553177Y-268219414D02*
X141553177Y-267219414D01*
X141934129Y-267219414D01*
X142029367Y-267267034D01*
X142076987Y-267314653D01*
X142124606Y-267409891D01*
X142124606Y-267552748D01*
X142076987Y-267647986D01*
X142029367Y-267695605D01*
X141934129Y-267743224D01*
X141553177Y-267743224D01*
X143267463Y-267171795D02*
X142410320Y-268457510D01*
X143457939Y-267219414D02*
X144029367Y-267219414D01*
X143743653Y-268219414D02*
X143743653Y-267219414D01*
X144362701Y-268219414D02*
X144362701Y-267552748D01*
X144362701Y-267743224D02*
X144410320Y-267647986D01*
X144457939Y-267600367D01*
X144553177Y-267552748D01*
X144648415Y-267552748D01*
X145410320Y-268219414D02*
X145410320Y-267695605D01*
X145362701Y-267600367D01*
X145267463Y-267552748D01*
X145076987Y-267552748D01*
X144981748Y-267600367D01*
X145410320Y-268171795D02*
X145315082Y-268219414D01*
X145076987Y-268219414D01*
X144981748Y-268171795D01*
X144934129Y-268076557D01*
X144934129Y-267981319D01*
X144981748Y-267886081D01*
X145076987Y-267838462D01*
X145315082Y-267838462D01*
X145410320Y-267790843D01*
X145886510Y-267552748D02*
X145886510Y-268219414D01*
X145886510Y-267647986D02*
X145934129Y-267600367D01*
X146029367Y-267552748D01*
X146172225Y-267552748D01*
X146267463Y-267600367D01*
X146315082Y-267695605D01*
X146315082Y-268219414D01*
X146743653Y-268171795D02*
X146838891Y-268219414D01*
X147029367Y-268219414D01*
X147124606Y-268171795D01*
X147172225Y-268076557D01*
X147172225Y-268028938D01*
X147124606Y-267933700D01*
X147029367Y-267886081D01*
X146886510Y-267886081D01*
X146791272Y-267838462D01*
X146743653Y-267743224D01*
X146743653Y-267695605D01*
X146791272Y-267600367D01*
X146886510Y-267552748D01*
X147029367Y-267552748D01*
X147124606Y-267600367D01*
X147457939Y-267552748D02*
X147838891Y-267552748D01*
X147600796Y-268219414D02*
X147600796Y-267362272D01*
X147648415Y-267267034D01*
X147743653Y-267219414D01*
X147838891Y-267219414D01*
X148315082Y-268219414D02*
X148219844Y-268171795D01*
X148172225Y-268124176D01*
X148124606Y-268028938D01*
X148124606Y-267743224D01*
X148172225Y-267647986D01*
X148219844Y-267600367D01*
X148315082Y-267552748D01*
X148457939Y-267552748D01*
X148553177Y-267600367D01*
X148600796Y-267647986D01*
X148648415Y-267743224D01*
X148648415Y-268028938D01*
X148600796Y-268124176D01*
X148553177Y-268171795D01*
X148457939Y-268219414D01*
X148315082Y-268219414D01*
G04 #@! TO.C,Tx*
X165452380Y-90920476D02*
X165452380Y-90349047D01*
X166452380Y-90634761D02*
X165452380Y-90634761D01*
X166452380Y-90110952D02*
X165785714Y-89587142D01*
X165785714Y-90110952D02*
X166452380Y-89587142D01*
G04 #@! TD*
M02*
