M48
;DRILL file {KiCad 5.0.2+dfsg1-1+deb10u1} date jeu. 23 nov. 2023 01:19:34 CET
;FORMAT={-:-/ absolute / inch / decimal}
FMAT,2
INCH,TZ
T1C0.0157
T2C0.0315
T3C0.0354
T4C0.0394
T5C0.0433
T6C0.0472
T7C0.0591
T8C0.0598
%
G90
G05
T1
X1.9509Y-3.6509
X2.1551Y-3.8601
X2.2339Y-3.6509
X3.622Y-2.6772
X3.622Y-2.7772
X3.878Y-3.6811
X3.8976Y-3.563
X3.9961Y-2.7772
X4.0945Y-3.6811
X4.2323Y-3.563
X4.2717Y-2.874
X4.2717Y-2.9724
X4.8804Y-2.8023
T2
X3.4449Y-2.2638
X3.8449Y-2.2638
X1.8432Y-3.6509
X1.8432Y-4.0509
X2.5322Y-4.2021
X2.5322Y-4.6021
X2.5322Y-3.6509
X2.5322Y-4.0509
X2.3024Y-4.2021
X2.3024Y-4.3005
X1.8432Y-4.2021
X1.8432Y-4.6021
X4.3489Y-3.6291
X4.3489Y-3.8259
X1.6134Y-4.2021
X1.6134Y-4.3005
X4.3489Y-3.9243
X4.3489Y-4.1212
X4.5261Y-3.7708
X4.5261Y-3.9637
X2.6762Y-4.0484
X3.0762Y-4.0484
X3.2471Y-4.0484
X3.6471Y-4.0484
X4.467Y-2.6054
X4.467Y-3.0054
X3.4449Y-2.3819
X3.8449Y-2.3819
X4.7229Y-2.9991
X4.7229Y-3.0991
X4.7229Y-3.1991
X4.7229Y-3.2991
X4.7229Y-3.3991
X4.7229Y-3.4991
X4.7229Y-3.5991
X4.7229Y-3.6991
X4.7229Y-3.7991
X4.7229Y-3.8991
X4.7229Y-3.9991
X4.7229Y-4.0991
X4.7229Y-4.1991
X4.7229Y-4.2991
X5.0229Y-2.9991
X5.0229Y-3.0991
X5.0229Y-3.1991
X5.0229Y-3.2991
X5.0229Y-3.3991
X5.0229Y-3.4991
X5.0229Y-3.5991
X5.0229Y-3.6991
X5.0229Y-3.7991
X5.0229Y-3.8991
X5.0229Y-3.9991
X5.0229Y-4.0991
X5.0229Y-4.1991
X5.0229Y-4.2991
T3
X4.0354Y-2.2835
X4.0354Y-2.3835
T4
X2.9921Y-2.2835
X2.9921Y-2.4803
X3.189Y-2.2835
X3.189Y-2.4803
T5
X3.3858Y-2.6181
X3.3858Y-2.7181
X3.3858Y-2.8181
T6
X3.0315Y-3.189
X3.2283Y-3.189
X3.5827Y-3.189
X3.7795Y-3.189
T7
X1.9094Y-2.4409
X1.9094Y-2.6378
X1.9094Y-2.8346
X1.9094Y-3.0315
X1.9094Y-3.2283
X2.6969Y-2.4409
X2.6969Y-2.6378
X2.6969Y-2.8346
X2.6969Y-3.0315
X2.6969Y-3.2283
T8
X1.574Y-3.719
X1.574Y-3.919
X1.5748Y-2.9134
X1.5748Y-3.1134
X4.3472Y-2.3622
X4.5472Y-2.3622
X2.874Y-4.3307
X3.074Y-4.3307
X1.5748Y-2.4213
X1.5748Y-2.6213
X4.7803Y-2.3622
X4.9803Y-2.3622
T0
M30
